<svg xmlns="http://www.w3.org/2000/svg" xmlns:xlink="http://www.w3.org/1999/xlink" viewBox="0 0 232.04 226.14"><defs><style>.cls-1{isolation:isolate;}.cls-2{opacity:0.4;mix-blend-mode:multiply;fill:url(#linear-gradient);}.cls-3{fill:#9faed0;}.cls-3,.cls-4,.cls-7{stroke:#212683;}.cls-3,.cls-4,.cls-5,.cls-7{stroke-miterlimit:10;stroke-width:6px;}.cls-4{fill:#9dcc96;}.cls-5{fill:#a8dedb;stroke:#1f2687;}.cls-6{fill:#212683;}.cls-7{fill:none;}</style><linearGradient id="linear-gradient" x1="13.8" y1="91.77" x2="218.19" y2="91.77" gradientTransform="matrix(0.95, -0.32, 0.32, 0.95, -24.02, 50.8)" gradientUnits="userSpaceOnUse"><stop offset="0" stop-color="#efa6c2"/><stop offset="1" stop-color="#96cdbd"/></linearGradient></defs><title>Market</title><g class="cls-1"><g id="Layer_2" data-name="Layer 2"><g id="Layer_1-2" data-name="Layer 1"><path class="cls-2" d="M152.19,68.18a56.58,56.58,0,0,0-17.07,9.23,67.89,67.89,0,1,0-86.88,55.47,56.69,56.69,0,1,0,99.83,41.21,56.68,56.68,0,1,0,4.12-105.9Z"/><path class="cls-3" d="M74.34,219.84H186a7.93,7.93,0,0,0,7.92-7.92V117.36h-157v94.56a7.93,7.93,0,0,0,7.92,7.92H54"/><path class="cls-4" d="M46.68,145.44h0a9.81,9.81,0,0,1-9.81-9.81V117.94H56.49v17.68A9.81,9.81,0,0,1,46.68,145.44Z"/><path class="cls-4" d="M56.49,117.94H76.12a0,0,0,0,1,0,0v17.68a9.81,9.81,0,0,1-9.81,9.81h0a9.81,9.81,0,0,1-9.81-9.81V117.94A0,0,0,0,1,56.49,117.94Z"/><path class="cls-4" d="M85.93,145.44h0a9.81,9.81,0,0,1-9.81-9.81V117.94H95.75v17.68A9.81,9.81,0,0,1,85.93,145.44Z"/><path class="cls-4" d="M105.56,145.44h0a9.81,9.81,0,0,1-9.81-9.81V117.94h19.63v17.68A9.81,9.81,0,0,1,105.56,145.44Z"/><path class="cls-4" d="M115.38,117.94H135a0,0,0,0,1,0,0v17.68a9.81,9.81,0,0,1-9.81,9.81h0a9.81,9.81,0,0,1-9.81-9.81V117.94A0,0,0,0,1,115.38,117.94Z"/><path class="cls-4" d="M144.82,145.44h0a9.81,9.81,0,0,1-9.81-9.81V117.94h19.63v17.68A9.81,9.81,0,0,1,144.82,145.44Z"/><path class="cls-4" d="M164.45,145.44h0a9.81,9.81,0,0,1-9.81-9.81V117.94h19.63v17.68A9.81,9.81,0,0,1,164.45,145.44Z"/><path class="cls-4" d="M174.26,117.94h19.63a0,0,0,0,1,0,0v17.68a9.81,9.81,0,0,1-9.81,9.81h0a9.81,9.81,0,0,1-9.81-9.81V117.94A0,0,0,0,1,174.26,117.94Z"/><path class="cls-5" d="M183.05,69.31a11.85,11.85,0,0,1,1.28,1.84L200.62,100a12.05,12.05,0,0,1-6.73,17.38,12.37,12.37,0,0,1-3.75.58H40.6a12,12,0,0,1-10.48-18L46.41,71.15a11.85,11.85,0,0,1,1.28-1.84"/><rect class="cls-5" x="56.49" y="162.84" width="45.21" height="25.5" rx="2.02" ry="2.02"/><path class="cls-5" d="M142.42,166.68h22.37a7.42,7.42,0,0,1,7.42,7.42v45.75a0,0,0,0,1,0,0H135a0,0,0,0,1,0,0V174.09A7.42,7.42,0,0,1,142.42,166.68Z"/><path class="cls-6" d="M22.65,23.25H19.89V20.49a3.4,3.4,0,0,0-6.79,0v2.76H10.34a3.4,3.4,0,0,0,0,6.79H13.1V32.8a3.4,3.4,0,0,0,6.79,0V30h2.76a3.4,3.4,0,0,0,0-6.79Z"/><path class="cls-6" d="M228.65,165.2h-2.76v-2.76a3.4,3.4,0,0,0-6.79,0v2.76h-2.76a3.4,3.4,0,0,0,0,6.79h2.76v2.76a3.4,3.4,0,0,0,6.79,0V172h2.76a3.4,3.4,0,0,0,0-6.79Z"/><path class="cls-6" d="M22.65,203.33H19.89v-2.76a3.4,3.4,0,0,0-6.79,0v2.76H10.34a3.4,3.4,0,0,0,0,6.79H13.1v2.76a3.4,3.4,0,0,0,6.79,0v-2.76h2.76a3.4,3.4,0,0,0,0-6.79Z"/><path class="cls-3" d="M157.12,47v0a2.26,2.26,0,0,1-2.25,2.25h-79A2.26,2.26,0,0,1,73.63,47v0A13,13,0,0,0,60.26,34a13.15,13.15,0,0,0-12.63,12.7,12.9,12.9,0,0,0,2,7.19,6.71,6.71,0,0,1,0,7.2,12.9,12.9,0,0,0-2,7.19,13.15,13.15,0,0,0,12.63,12.7,13,13,0,0,0,13.37-13v0a2.26,2.26,0,0,1,2.25-2.25h79a2.26,2.26,0,0,1,2.25,2.25v0a13,13,0,0,0,13.37,13,13.15,13.15,0,0,0,12.63-12.7,12.9,12.9,0,0,0-2-7.19,6.71,6.71,0,0,1,0-7.2,12.9,12.9,0,0,0,2-7.19A13.15,13.15,0,0,0,170.49,34,13,13,0,0,0,157.12,47Z"/><circle class="cls-6" cx="64.33" cy="219.84" r="2.69"/><line class="cls-7" x1="30.12" y1="99.98" x2="144.82" y2="99.98"/><line class="cls-7" x1="157.2" y1="99.98" x2="167.7" y2="99.98"/><circle class="cls-6" cx="144.82" cy="197.18" r="2.86"/><line class="cls-7" x1="193.89" y1="202.34" x2="172.2" y2="202.34"/><line class="cls-7" x1="135" y1="202.34" x2="36.86" y2="202.34"/></g></g></g></svg>